<?xml version="1.0" encoding="UTF-8"?>
<svg id="Layer_2" data-name="Layer 2" xmlns="http://www.w3.org/2000/svg" viewBox="0 0 734 474.51">
  <defs>
    <style>
      .cls-1 {
        fill: #fff;
        stroke: #58595b;
        stroke-miterlimit: 10;
        stroke-width: 2px;
      }
    </style>
  </defs>
  <g id="Layer_1-2" data-name="Layer 1">
    <rect class="cls-1" x="51" y="174.79" width="32" height="128" rx="15.8" ry="15.8"/>
    <rect class="cls-1" x="651" y="174.79" width="32" height="128" rx="15.8" ry="15.8"/>
    <rect class="cls-1" x="601" y="142.79" width="32" height="192" rx="16" ry="16"/>
    <rect class="cls-1" x="551" y="206.46" width="32" height="128" rx="15.8" ry="15.8"/>
    <rect class="cls-1" x="401" y="88.79" width="32" height="128" rx="15.8" ry="15.8"/>
    <rect class="cls-1" x="151" y="115.16" width="32" height="256" rx="16" ry="16"/>
    <rect class="cls-1" x="201" y="115.16" width="32" height="256" rx="16" ry="16"/>
    <circle class="cls-1" cx="117" cy="262.97" r="16"/>
    <circle class="cls-1" cx="117" cy="163.63" r="16"/>
    <circle class="cls-1" cx="217" cy="82.05" r="16"/>
    <circle class="cls-1" cx="567" cy="136.79" r="16"/>
    <circle class="cls-1" cx="567" cy="179.63" r="16"/>
    <circle class="cls-1" cx="117" cy="312.64" r="16"/>
    <circle class="cls-1" cx="567" cy="361.3" r="16"/>
    <circle class="cls-1" cx="217" cy="404.26" r="16"/>
    <circle class="cls-1" cx="117" cy="213.3" r="16"/>
    <circle class="cls-1" cx="17" cy="238.79" r="16"/>
    <circle class="cls-1" cx="367.84" cy="404.26" r="16"/>
    <circle class="cls-1" cx="317" cy="194.05" r="16"/>
    <circle class="cls-1" cx="317" cy="147.63" r="16"/>
    <circle class="cls-1" cx="517" cy="362.01" r="16"/>
    <circle class="cls-1" cx="517" cy="315.58" r="16"/>
    <circle class="cls-1" cx="367.84" cy="357.43" r="16"/>
    <path class="cls-1" d="M250.35,117.85c4.16-15.1,9.11-29.86,17.5-43.29,5.14-8.22,11-15.82,17.02-23.41,8.61-10.84,19.36-19.07,30.61-26.49C341.18,7.73,369.45-1.14,400.49,1.44c51.09,4.26,89.53,29.25,116.52,72.43,1.78,2.85,3.28,5.94,4.51,9.07,4.18,10.59,1.16,19.86-7.6,23.87-8.91,4.09-18.84.37-23.62-9.79-8.13-17.27-20.77-30.4-36.06-41.29-10.31-7.34-21.99-11.55-33.82-15.89-50.63-18.58-123.83,18.51-136.26,88.07-.4,2.22-1.14,4.39-.68,6.69-.03.65-.06,1.31-.09,1.96-.19,1.76-.53,3.51-.54,5.27-.1,32.92-.2,65.85-.22,98.77-.03,54.22,0,108.45,0,162.67-2.41,11.79-9.78,17.23-20.99,15.5-7.01-1.08-12.99-8.11-13.26-16.42-.33-10.66-.21-21.34-.21-32.01.02-76.31.07-152.62.04-228.93,0-7.95.85-15.78,2.12-23.59Z"/>
    <path class="cls-1" d="M446.51,264.28c.3-.11.4-.32.31-.62,1.87-2.21,3.71-4.43,4.48-7.32,0,0-.03.03-.03.03.6-.1,1.12-.31,1.26-1,.29-.05.39-.22.3-.5,2.21-3.19,4.26-6.46,5.62-10.12,0,0-.02.02-.02.02,1.5-1.15,1.66-3.07,2.61-4.54,8.78-17.46,12.05-36.03,11.28-55.43-.11-2.66-.17-5.34,0-7.99.6-9.1,6.23-15.4,14.21-16.06,7.96-.66,15.25,5.02,17.34,13.53.35,1.44.66,2.88.98,4.33.05,9.33.38,18.66-.62,27.97-1.34,12.42-4.67,24.34-8.68,36.11,0,0-.02.03-.02.03-7.7,20.25-21.39,36.85-33.31,54.52-12.82,19.01-19.63,39.73-19.22,62.81.24,13.83-.14,27.67-.19,41.5-.08,23.59-9.04,42.88-27.52,57.73-10.93,8.78-23.52,12.85-37.27,13.99-7.89.66-15.82,0-23.5-1.31-6.8-1.16-13.28-4.49-19.11-8.31-13.88-9.1-24.24-21.24-30.02-36.99-3.26-8.9-4.43-18.14-4.4-27.57,0-6.54,0-13.08-.01-19.62,0-.61,0-1.21,0-1.82.01-45.81.02-91.62.03-137.43,1.04-6.8,6.53-11.95,13.74-12.88,7.02-.9,13.81,3.09,16.65,9.93.62,1.48.84,3.13,1.25,4.7-.05.59-.14,1.18-.14,1.77.06,52.04.11,104.09.21,156.13,0,2.06.4,4.12.61,6.18,1.01,18.33,18.65,35.32,37.44,36.08,19.73.79,37.11-13.3,39.27-32.65,1.82-16.27.31-32.66.52-49,.1-7.86-.66-15.9.73-23.54,1.63-8.93,4.35-17.76,7.79-26.28,6.15-15.26,14.89-28.97,24.67-42.09.52-.7.87-1.52,1.3-2.28,0,0,.02-.05.02-.05.8-.41,1.23-1.09,1.42-1.94Z"/>
    <rect class="cls-1" x="351.84" y="66.05" width="32" height="256" rx="16" ry="16"/>
    <circle class="cls-1" cx="717" cy="238.79" r="16"/>
  </g>
</svg>